<svg width="95" height="33" viewBox="0 0 95 33" fill="none" xmlns="http://www.w3.org/2000/svg">
<path d="M38 32H55.777" stroke="#0E63F4" stroke-width="0.635"/>
<path d="M37.5327 4.99254V3.09091H46.4922V4.99254H43.1523V14H40.8725V4.99254H37.5327ZM48.515 14H46.0434L49.8094 3.09091H52.7817L56.5423 14H54.0708L51.3382 5.58381H51.2529L48.515 14ZM48.3605 9.712H54.1986V11.5124H48.3605V9.712ZM63.5243 6.22834C63.4817 5.79865 63.2988 5.46484 62.9757 5.22692C62.6525 4.98899 62.214 4.87003 61.66 4.87003C61.2836 4.87003 60.9657 4.9233 60.7065 5.02983C60.4473 5.13281 60.2484 5.27663 60.1099 5.46129C59.975 5.64595 59.9075 5.85547 59.9075 6.08984C59.9004 6.28516 59.9412 6.45561 60.03 6.60121C60.1223 6.7468 60.2484 6.87287 60.4082 6.9794C60.568 7.08239 60.7527 7.17294 60.9622 7.25107C61.1717 7.32564 61.3954 7.38956 61.6333 7.44283L62.6135 7.6772C63.0893 7.78374 63.5261 7.92578 63.9238 8.10334C64.3216 8.28089 64.666 8.49929 64.9572 8.75852C65.2484 9.01776 65.4739 9.32315 65.6337 9.67472C65.7971 10.0263 65.8805 10.4293 65.8841 10.8839C65.8805 11.5515 65.7101 12.1303 65.3727 12.6204C65.0389 13.1069 64.5559 13.4851 63.9238 13.755C63.2953 14.0213 62.5371 14.1545 61.6493 14.1545C60.7686 14.1545 60.0016 14.0195 59.3482 13.7496C58.6983 13.4798 58.1905 13.0803 57.8248 12.5511C57.4625 12.0185 57.2725 11.3597 57.2548 10.5749H59.4867C59.5115 10.9407 59.6163 11.2461 59.801 11.4911C59.9892 11.7326 60.2395 11.9155 60.552 12.0398C60.8681 12.1605 61.225 12.2209 61.6227 12.2209C62.0133 12.2209 62.3525 12.1641 62.6401 12.0504C62.9313 11.9368 63.1568 11.7788 63.3166 11.5763C63.4764 11.3739 63.5563 11.1413 63.5563 10.8786C63.5563 10.6335 63.4835 10.4276 63.3379 10.2607C63.1958 10.0937 62.9863 9.9517 62.7093 9.83452C62.4359 9.71733 62.1003 9.6108 61.7026 9.51491L60.5147 9.21662C59.595 8.9929 58.8688 8.64311 58.3361 8.16726C57.8034 7.69141 57.5389 7.05043 57.5424 6.24432C57.5389 5.58381 57.7147 5.00675 58.0698 4.51314C58.4284 4.01953 58.9203 3.63423 59.5453 3.35724C60.1703 3.08026 60.8805 2.94176 61.676 2.94176C62.4856 2.94176 63.1923 3.08026 63.796 3.35724C64.4032 3.63423 64.8755 4.01953 65.2129 4.51314C65.5502 5.00675 65.7243 5.57848 65.7349 6.22834H63.5243ZM67.4355 14V3.09091H69.7419V7.90092H69.8857L73.8115 3.09091H76.5761L72.5278 7.9755L76.624 14H73.8648L70.8765 9.51491L69.7419 10.8999V14H67.4355ZM77.7773 14V3.09091H80.0837V12.0984H84.7606V14H77.7773ZM84.2572 3.09091H86.8406L89.3282 7.78906H89.4347L91.9223 3.09091H94.5058L90.5267 10.1435V14H88.2362V10.1435L84.2572 3.09091Z" fill="#0E63F4"/>
<path d="M38.6165 25V19.9091H40.3366C40.736 19.9091 41.0625 19.9812 41.3161 20.1254C41.5713 20.2679 41.7602 20.4609 41.8828 20.7045C42.0054 20.9482 42.0668 21.2199 42.0668 21.5199C42.0668 21.8198 42.0054 22.0924 41.8828 22.3377C41.7618 22.583 41.5746 22.7785 41.321 22.9244C41.0675 23.0685 40.7427 23.1406 40.3466 23.1406H39.1136V22.5938H40.3267C40.6001 22.5938 40.8197 22.5465 40.9854 22.4521C41.1512 22.3576 41.2713 22.23 41.3459 22.0692C41.4221 21.9068 41.4602 21.7237 41.4602 21.5199C41.4602 21.3161 41.4221 21.1338 41.3459 20.973C41.2713 20.8123 41.1503 20.6863 40.983 20.5952C40.8156 20.5024 40.5935 20.456 40.3168 20.456H39.233V25H38.6165ZM43.0598 25V19.9091H43.6763V24.4531H46.0428V25H43.0598ZM47.5274 25H46.8811L48.7504 19.9091H49.3868L51.2561 25H50.6098L49.0885 20.7145H49.0487L47.5274 25ZM47.7661 23.0114H50.3712V23.5582H47.7661V23.0114ZM56.086 19.9091V25H55.4894L52.7153 21.0028H52.6656V25H52.0491V19.9091H52.6457L55.4298 23.9162H55.4795V19.9091H56.086ZM59.4276 22.1811V22.728H57.2003V22.1811H59.4276ZM62.1104 25H60.5393V19.9091H62.18C62.6738 19.9091 63.0964 20.011 63.4477 20.2148C63.799 20.417 64.0683 20.7079 64.2556 21.0874C64.4429 21.4652 64.5365 21.9176 64.5365 22.4446C64.5365 22.9749 64.442 23.4315 64.2531 23.8143C64.0642 24.1954 63.7891 24.4888 63.4278 24.6942C63.0666 24.8981 62.6274 25 62.1104 25ZM61.1558 24.4531H62.0706C62.4915 24.4531 62.8403 24.3719 63.1171 24.2095C63.3939 24.0471 63.6002 23.8159 63.7361 23.516C63.872 23.216 63.9399 22.8589 63.9399 22.4446C63.9399 22.0336 63.8728 21.6798 63.7385 21.3832C63.6043 21.0849 63.4038 20.8562 63.137 20.6971C62.8702 20.5363 62.5379 20.456 62.1402 20.456H61.1558V24.4531ZM69.866 22.4545C69.866 22.9915 69.7691 23.4555 69.5752 23.8466C69.3813 24.2377 69.1153 24.5393 68.7773 24.7514C68.4392 24.9635 68.0531 25.0696 67.6189 25.0696C67.1847 25.0696 66.7986 24.9635 66.4605 24.7514C66.1224 24.5393 65.8564 24.2377 65.6626 23.8466C65.4687 23.4555 65.3717 22.9915 65.3717 22.4545C65.3717 21.9176 65.4687 21.4536 65.6626 21.0625C65.8564 20.6714 66.1224 20.3698 66.4605 20.1577C66.7986 19.9455 67.1847 19.8395 67.6189 19.8395C68.0531 19.8395 68.4392 19.9455 68.7773 20.1577C69.1153 20.3698 69.3813 20.6714 69.5752 21.0625C69.7691 21.4536 69.866 21.9176 69.866 22.4545ZM69.2694 22.4545C69.2694 22.0137 69.1957 21.6417 69.0482 21.3384C68.9024 21.0352 68.7043 20.8056 68.4541 20.6499C68.2055 20.4941 67.9271 20.4162 67.6189 20.4162C67.3106 20.4162 67.0314 20.4941 66.7812 20.6499C66.5326 20.8056 66.3345 21.0352 66.1871 21.3384C66.0412 21.6417 65.9683 22.0137 65.9683 22.4545C65.9683 22.8954 66.0412 23.2674 66.1871 23.5707C66.3345 23.8739 66.5326 24.1035 66.7812 24.2592C67.0314 24.415 67.3106 24.4929 67.6189 24.4929C67.9271 24.4929 68.2055 24.415 68.4541 24.2592C68.7043 24.1035 68.9024 23.8739 69.0482 23.5707C69.1957 23.2674 69.2694 22.8954 69.2694 22.4545ZM73.0106 22.1811V22.728H70.7833V22.1811H73.0106ZM75.6934 25H74.1223V19.9091H75.763C76.2568 19.9091 76.6794 20.011 77.0307 20.2148C77.382 20.417 77.6513 20.7079 77.8386 21.0874C78.0259 21.4652 78.1195 21.9176 78.1195 22.4446C78.1195 22.9749 78.025 23.4315 77.8361 23.8143C77.6472 24.1954 77.3721 24.4888 77.0108 24.6942C76.6496 24.8981 76.2104 25 75.6934 25ZM74.7388 24.4531H75.6536C76.0745 24.4531 76.4234 24.3719 76.7001 24.2095C76.9769 24.0471 77.1832 23.8159 77.3191 23.516C77.455 23.216 77.5229 22.8589 77.5229 22.4446C77.5229 22.0336 77.4558 21.6798 77.3216 21.3832C77.1873 21.0849 76.9868 20.8562 76.72 20.6971C76.4532 20.5363 76.1209 20.456 75.7232 20.456H74.7388V24.4531ZM83.449 22.4545C83.449 22.9915 83.3521 23.4555 83.1582 23.8466C82.9643 24.2377 82.6983 24.5393 82.3603 24.7514C82.0222 24.9635 81.6361 25.0696 81.2019 25.0696C80.7677 25.0696 80.3816 24.9635 80.0435 24.7514C79.7054 24.5393 79.4395 24.2377 79.2456 23.8466C79.0517 23.4555 78.9547 22.9915 78.9547 22.4545C78.9547 21.9176 79.0517 21.4536 79.2456 21.0625C79.4395 20.6714 79.7054 20.3698 80.0435 20.1577C80.3816 19.9455 80.7677 19.8395 81.2019 19.8395C81.6361 19.8395 82.0222 19.9455 82.3603 20.1577C82.6983 20.3698 82.9643 20.6714 83.1582 21.0625C83.3521 21.4536 83.449 21.9176 83.449 22.4545ZM82.8525 22.4545C82.8525 22.0137 82.7787 21.6417 82.6312 21.3384C82.4854 21.0352 82.2873 20.8056 82.0371 20.6499C81.7885 20.4941 81.5101 20.4162 81.2019 20.4162C80.8936 20.4162 80.6144 20.4941 80.3642 20.6499C80.1156 20.8056 79.9176 21.0352 79.7701 21.3384C79.6242 21.6417 79.5513 22.0137 79.5513 22.4545C79.5513 22.8954 79.6242 23.2674 79.7701 23.5707C79.9176 23.8739 80.1156 24.1035 80.3642 24.2592C80.6144 24.415 80.8936 24.4929 81.2019 24.4929C81.5101 24.4929 81.7885 24.415 82.0371 24.2592C82.2873 24.1035 82.4854 23.8739 82.6312 23.5707C82.7787 23.2674 82.8525 22.8954 82.8525 22.4545ZM88.5225 19.9091V25H87.926L85.1518 21.0028H85.1021V25H84.4856V19.9091H85.0822L87.8663 23.9162H87.916V19.9091H88.5225ZM89.7561 25V19.9091H92.8286V20.456H90.3726V22.1761H92.6695V22.723H90.3726V24.4531H92.8683V25H89.7561Z" fill="#797595"/>
<path d="M0 0H32V32H0V0Z" fill="#0E63F4"/>
<path d="M16.3701 12.8799H21.6201" stroke="white" stroke-width="1.5" stroke-linecap="round" stroke-linejoin="round"/>
<path d="M10.3799 12.8799L11.1299 13.6299L13.3799 11.3799" stroke="white" stroke-width="1.5" stroke-linecap="round" stroke-linejoin="round"/>
<path d="M16.3701 19.8799H21.6201" stroke="white" stroke-width="1.5" stroke-linecap="round" stroke-linejoin="round"/>
<path d="M10.3799 19.8799L11.1299 20.6299L13.3799 18.3799" stroke="white" stroke-width="1.5" stroke-linecap="round" stroke-linejoin="round"/>
<path d="M13 26H19C24 26 26 24 26 19V13C26 8 24 6 19 6H13C8 6 6 8 6 13V19C6 24 8 26 13 26Z" stroke="white" stroke-width="1.5" stroke-linecap="round" stroke-linejoin="round"/>
</svg>
